<svg width="12" height="12" viewBox="0 0 12 12" fill="none" xmlns="http://www.w3.org/2000/svg">
<path d="M5.16 2.39761L5.45455 2.04352V4.19805C5.45455 4.35722 5.51201 4.50987 5.61431 4.62242C5.7166 4.73497 5.85534 4.7982 6 4.7982C6.14466 4.7982 6.2834 4.73497 6.38569 4.62242C6.48799 4.50987 6.54545 4.35722 6.54545 4.19805V2.04352L6.84 2.3736C6.88951 2.43513 6.94998 2.48481 7.01766 2.51958C7.08534 2.55434 7.15879 2.57344 7.23345 2.57569C7.30811 2.57794 7.3824 2.56329 7.45171 2.53266C7.52101 2.50203 7.58386 2.45606 7.63636 2.39761C7.68749 2.34181 7.72807 2.27544 7.75576 2.2023C7.78345 2.12917 7.79771 2.05073 7.79771 1.9715C7.79771 1.89227 7.78345 1.81383 7.75576 1.7407C7.72807 1.66756 7.68749 1.60119 7.63636 1.54539L6.38727 0.171051C6.3354 0.116413 6.27423 0.0735831 6.20727 0.0450193C6.07448 -0.0150064 5.92552 -0.0150064 5.79273 0.0450193C5.72577 0.0735831 5.6646 0.116413 5.61273 0.171051L4.36364 1.52139C4.25803 1.63758 4.1987 1.79517 4.1987 1.9595C4.1987 2.12382 4.25803 2.28141 4.36364 2.39761C4.46924 2.5138 4.61247 2.57908 4.76182 2.57908C4.91117 2.57908 5.0544 2.5138 5.16 2.39761ZM6 5.9985C5.67636 5.9985 5.35998 6.1041 5.09089 6.30193C4.82179 6.49977 4.61205 6.78096 4.4882 7.10995C4.36434 7.43894 4.33194 7.80095 4.39508 8.1502C4.45822 8.49946 4.61407 8.82026 4.84292 9.07206C5.07177 9.32386 5.36334 9.49534 5.68076 9.56481C5.99819 9.63428 6.3272 9.59862 6.62621 9.46235C6.92522 9.32608 7.18078 9.09531 7.36059 8.79923C7.54039 8.50315 7.63636 8.15505 7.63636 7.79895C7.63636 7.32144 7.46396 6.86349 7.15708 6.52584C6.85021 6.18819 6.43399 5.9985 6 5.9985ZM6 8.3991C5.89212 8.3991 5.78666 8.3639 5.69696 8.29796C5.60726 8.23201 5.53735 8.13828 5.49607 8.02862C5.45478 7.91896 5.44398 7.79829 5.46503 7.68187C5.48607 7.56545 5.53802 7.45852 5.61431 7.37458C5.69059 7.29065 5.78778 7.23349 5.89359 7.21033C5.99939 7.18718 6.10907 7.19906 6.20874 7.24449C6.30841 7.28991 6.39359 7.36683 6.45353 7.46553C6.51346 7.56422 6.54545 7.68025 6.54545 7.79895C6.54545 7.95812 6.48799 8.11077 6.38569 8.22332C6.2834 8.33587 6.14466 8.3991 6 8.3991ZM2.18182 7.79895C2.18182 7.91765 2.21381 8.03368 2.27374 8.13238C2.33368 8.23107 2.41887 8.30799 2.51854 8.35342C2.61821 8.39884 2.72788 8.41073 2.83369 8.38757C2.93949 8.36441 3.03668 8.30725 3.11297 8.22332C3.18925 8.13939 3.2412 8.03245 3.26225 7.91604C3.28329 7.79962 3.27249 7.67895 3.23121 7.56928C3.18992 7.45962 3.12001 7.36589 3.03031 7.29995C2.94061 7.234 2.83515 7.1988 2.72727 7.1988C2.58261 7.1988 2.44387 7.26203 2.34158 7.37458C2.23929 7.48713 2.18182 7.63978 2.18182 7.79895ZM9.81818 7.79895C9.81818 7.68025 9.78619 7.56422 9.72626 7.46553C9.66632 7.36683 9.58113 7.28991 9.48146 7.24449C9.38179 7.19906 9.27212 7.18718 9.16631 7.21033C9.06051 7.23349 8.96332 7.29065 8.88703 7.37458C8.81075 7.45852 8.7588 7.56545 8.73775 7.68187C8.71671 7.79829 8.72751 7.91896 8.76879 8.02862C8.81008 8.13828 8.87999 8.23201 8.96969 8.29796C9.05939 8.3639 9.16485 8.3991 9.27273 8.3991C9.41739 8.3991 9.55613 8.33587 9.65842 8.22332C9.76072 8.11077 9.81818 7.95812 9.81818 7.79895ZM10.3636 3.59791H8.18182C8.03716 3.59791 7.89842 3.66114 7.79612 3.77369C7.69383 3.88623 7.63636 4.03889 7.63636 4.19805C7.63636 4.35722 7.69383 4.50987 7.79612 4.62242C7.89842 4.73497 8.03716 4.7982 8.18182 4.7982H10.3636C10.5083 4.7982 10.647 4.86143 10.7493 4.97398C10.8516 5.08653 10.9091 5.23918 10.9091 5.39835V10.1996C10.9091 10.3587 10.8516 10.5114 10.7493 10.6239C10.647 10.7365 10.5083 10.7997 10.3636 10.7997H1.63636C1.4917 10.7997 1.35296 10.7365 1.25067 10.6239C1.14838 10.5114 1.09091 10.3587 1.09091 10.1996V5.39835C1.09091 5.23918 1.14838 5.08653 1.25067 4.97398C1.35296 4.86143 1.4917 4.7982 1.63636 4.7982H3.81818C3.96285 4.7982 4.10158 4.73497 4.20388 4.62242C4.30617 4.50987 4.36364 4.35722 4.36364 4.19805C4.36364 4.03889 4.30617 3.88623 4.20388 3.77369C4.10158 3.66114 3.96285 3.59791 3.81818 3.59791H1.63636C1.20237 3.59791 0.786158 3.78759 0.47928 4.12524C0.172402 4.46289 0 4.92085 0 5.39835V10.1996C0 10.6771 0.172402 11.135 0.47928 11.4727C0.786158 11.8103 1.20237 12 1.63636 12H10.3636C10.7976 12 11.2138 11.8103 11.5207 11.4727C11.8276 11.135 12 10.6771 12 10.1996V5.39835C12 4.92085 11.8276 4.46289 11.5207 4.12524C11.2138 3.78759 10.7976 3.59791 10.3636 3.59791Z" fill="#29BB89"/>
</svg>
