<svg width="12" height="8" viewBox="0 0 12 8" fill="none" xmlns="http://www.w3.org/2000/svg">
<path d="M11.8271 2.45203L9.42662 0.167934C9.37067 0.114692 9.30424 0.0724588 9.23114 0.0436447C9.15803 0.0148306 9.07967 0 9.00054 0C8.84073 0 8.68747 0.0604076 8.57447 0.167934C8.46146 0.27546 8.39798 0.421297 8.39798 0.573362C8.39798 0.725427 8.46146 0.871263 8.57447 0.97879L9.95472 2.28644H2.99946C2.8403 2.28644 2.68766 2.3466 2.57512 2.45369C2.46257 2.56078 2.39935 2.70602 2.39935 2.85746C2.39935 3.00891 2.46257 3.15415 2.57512 3.26124C2.68766 3.36833 2.8403 3.42849 2.99946 3.42849H11.401C11.5195 3.42793 11.6351 3.394 11.7334 3.331C11.8316 3.268 11.9081 3.17873 11.9531 3.07445C11.999 2.97046 12.0116 2.85585 11.9892 2.74508C11.9667 2.6343 11.9103 2.53233 11.8271 2.45203ZM9.00054 4.57054H0.599021C0.480544 4.5711 0.364893 4.60502 0.266643 4.66802C0.168393 4.73103 0.0919406 4.82029 0.0469203 4.92457C0.000964314 5.02856 -0.0115916 5.14318 0.010837 5.25395C0.0332655 5.36472 0.0896735 5.46669 0.172943 5.54699L2.57338 7.83109C2.62917 7.88461 2.69554 7.92709 2.76867 7.95609C2.8418 7.98508 2.92023 8 2.99946 8C3.07868 8 3.15712 7.98508 3.23024 7.95609C3.30337 7.92709 3.36975 7.88461 3.42553 7.83109C3.48178 7.77801 3.52643 7.71485 3.55689 7.64527C3.58736 7.57568 3.60304 7.50105 3.60304 7.42566C3.60304 7.35028 3.58736 7.27565 3.55689 7.20606C3.52643 7.13648 3.48178 7.07332 3.42553 7.02024L2.04528 5.71259H9.00054C9.1597 5.71259 9.31234 5.65243 9.42489 5.54534C9.53743 5.43825 9.60065 5.29301 9.60065 5.14156C9.60065 4.99012 9.53743 4.84488 9.42489 4.73779C9.31234 4.6307 9.1597 4.57054 9.00054 4.57054Z" fill="#29BB89"/>
</svg>
