<svg width="13" height="13" viewBox="0 0 13 13" fill="none" xmlns="http://www.w3.org/2000/svg">
<path d="M13 11.375L10.5625 13V12.1875H6.70312L8.32812 10.5625H10.5625V9.75L13 11.375Z" fill="#E33F3F"/>
<path d="M0 1.625L2.4375 0V0.8125H6.29688L4.67188 2.4375H2.4375V3.25L0 1.625Z" fill="#E33F3F"/>
<path fill-rule="evenodd" clip-rule="evenodd" d="M0 7.91375L7.91375 0L13 5.08625L5.08625 13L0 7.91375ZM7.91375 1.12931L1.12938 7.91368L5.08625 11.8706L11.8706 5.08618L7.91375 1.12931Z" fill="#E33F3F"/>
<path d="M3.38812 7.9137L2.81937 8.48245L4.51749 10.1806L5.08624 9.61182L5.68749 10.1724L7.91374 7.9137C7.12968 8.67494 5.8797 8.6657 5.10697 7.89297C4.33423 7.12023 4.325 5.87026 5.08624 5.0862L2.82749 7.31245L3.38812 7.9137Z" fill="#E33F3F"/>
<path d="M10.1725 4.52543L8.47437 2.8273L7.90562 3.39605L7.31249 2.8273L5.08624 5.08605C5.87031 4.32481 7.12028 4.33404 7.89302 5.10678C8.66575 5.87951 8.67498 7.12949 7.91374 7.91355L10.1725 5.6873L9.60374 5.11855L10.1725 4.52543Z" fill="#E33F3F"/>
</svg>
