<svg width="10" height="10" viewBox="0 0 10 10" fill="none" xmlns="http://www.w3.org/2000/svg">
<path d="M3.35498 2.43189C3.84058 2.21825 4.38838 2.08337 4.99999 2.08337C6.2313 2.08337 7.21201 2.6314 7.94181 3.2768C8.67327 3.92367 9.1358 4.65437 9.31974 4.97686C9.32463 4.98543 9.32621 4.99306 9.32619 4.99971C9.32617 5.00644 9.32448 5.01487 9.31895 5.02456C9.20819 5.21859 8.99506 5.56311 8.6814 5.94866C8.57248 6.08254 8.59272 6.27937 8.7266 6.38829C8.86048 6.4972 9.05731 6.47697 9.16622 6.34309C9.5065 5.92482 9.73847 5.55037 9.86175 5.33438C9.97968 5.12778 9.98203 4.87651 9.86264 4.6672C9.66064 4.31305 9.15819 3.51817 8.35585 2.80862C7.55186 2.0976 6.42995 1.45837 4.99999 1.45837C4.2936 1.45837 3.66043 1.6147 3.1033 1.8598C2.94532 1.9293 2.8736 2.11371 2.9431 2.27169C3.0126 2.42966 3.19701 2.50139 3.35498 2.43189Z" fill="#585858"/>
<path fill-rule="evenodd" clip-rule="evenodd" d="M7.98583 7.49471C7.21993 8.07451 6.2221 8.54171 4.99999 8.54171C3.57003 8.54171 2.44811 7.90247 1.64411 7.19145C0.841767 6.48189 0.339318 5.687 0.137313 5.33285C0.0180805 5.12382 0.0199501 4.87287 0.13802 4.66599C0.329476 4.33052 0.790216 3.60018 1.51995 2.92128L0.548684 2.23429C0.407779 2.13462 0.374347 1.9396 0.474011 1.7987C0.573676 1.65779 0.768695 1.62436 0.909599 1.72403L9.45127 7.76569C9.59217 7.86536 9.6256 8.06038 9.52594 8.20128C9.42627 8.34219 9.23125 8.37562 9.09035 8.27595L7.98583 7.49471ZM2.04238 3.29081C1.3213 3.93305 0.864253 4.65441 0.680839 4.97578C0.675325 4.98545 0.673693 4.99374 0.673676 5.00028C0.673659 5.00676 0.6752 5.01441 0.680208 5.02319C0.864157 5.34569 1.32669 6.07639 2.05815 6.72327C2.78796 7.36868 3.76868 7.91671 4.99999 7.91671C5.97233 7.91671 6.78778 7.57519 7.44734 7.11382L5.98246 6.07769C5.72326 6.31413 5.37844 6.45832 4.99995 6.45832C4.19453 6.45832 3.54162 5.80541 3.54162 4.99999C3.54162 4.79862 3.58243 4.60679 3.65623 4.43231L2.04238 3.29081Z" fill="#585858"/>
</svg>
