<svg width="12" height="10" viewBox="0 0 12 10" fill="none" xmlns="http://www.w3.org/2000/svg">
<path d="M6 5C5.70333 5 5.41332 5.08797 5.16664 5.2528C4.91997 5.41762 4.72771 5.65189 4.61418 5.92597C4.50065 6.20006 4.47094 6.50166 4.52882 6.79264C4.5867 7.08361 4.72956 7.35088 4.93934 7.56066C5.14912 7.77044 5.41639 7.9133 5.70736 7.97118C5.99834 8.02906 6.29994 7.99935 6.57403 7.88582C6.84811 7.77229 7.08238 7.58003 7.2472 7.33335C7.41203 7.08668 7.5 6.79667 7.5 6.5C7.5 6.10218 7.34196 5.72064 7.06066 5.43934C6.77936 5.15804 6.39782 5 6 5ZM6 7C5.90111 7 5.80444 6.97068 5.72221 6.91573C5.63999 6.86079 5.5759 6.7827 5.53806 6.69134C5.50022 6.59998 5.49031 6.49945 5.50961 6.40245C5.5289 6.30546 5.57652 6.21637 5.64645 6.14645C5.71637 6.07652 5.80546 6.0289 5.90245 6.00961C5.99945 5.99031 6.09998 6.00022 6.19134 6.03806C6.2827 6.0759 6.36079 6.13999 6.41573 6.22221C6.47068 6.30444 6.5 6.40111 6.5 6.5C6.5 6.63261 6.44732 6.75979 6.35355 6.85355C6.25979 6.94732 6.13261 7 6 7ZM5.645 3.855C5.69255 3.90052 5.74862 3.9362 5.81 3.96C5.86985 3.98645 5.93456 4.00012 6 4.00012C6.06544 4.00012 6.13015 3.98645 6.19 3.96C6.25138 3.9362 6.30745 3.90052 6.355 3.855L7.5 2.73C7.5968 2.6332 7.65119 2.5019 7.65119 2.365C7.65119 2.2281 7.5968 2.0968 7.5 2C7.4032 1.9032 7.2719 1.84881 7.135 1.84881C6.9981 1.84881 6.8668 1.9032 6.77 2L6.5 2.295V0.5C6.5 0.367392 6.44732 0.240215 6.35355 0.146447C6.25979 0.0526784 6.13261 0 6 0C5.86739 0 5.74021 0.0526784 5.64645 0.146447C5.55268 0.240215 5.5 0.367392 5.5 0.5V2.295L5.23 2C5.1332 1.9032 5.0019 1.84881 4.865 1.84881C4.7281 1.84881 4.5968 1.9032 4.5 2C4.4032 2.0968 4.34881 2.2281 4.34881 2.365C4.34881 2.5019 4.4032 2.6332 4.5 2.73L5.645 3.855ZM9.5 6.5C9.5 6.40111 9.47068 6.30444 9.41574 6.22221C9.36079 6.13999 9.2827 6.0759 9.19134 6.03806C9.09998 6.00022 8.99944 5.99031 8.90245 6.00961C8.80546 6.0289 8.71637 6.07652 8.64645 6.14645C8.57652 6.21637 8.5289 6.30546 8.50961 6.40245C8.49031 6.49945 8.50022 6.59998 8.53806 6.69134C8.5759 6.7827 8.63999 6.86079 8.72221 6.91573C8.80444 6.97068 8.90111 7 9 7C9.13261 7 9.25979 6.94732 9.35355 6.85355C9.44732 6.75979 9.5 6.63261 9.5 6.5ZM10 3H8.5C8.36739 3 8.24021 3.05268 8.14645 3.14645C8.05268 3.24021 8 3.36739 8 3.5C8 3.63261 8.05268 3.75979 8.14645 3.85355C8.24021 3.94732 8.36739 4 8.5 4H10C10.1326 4 10.2598 4.05268 10.3536 4.14645C10.4473 4.24021 10.5 4.36739 10.5 4.5V8.5C10.5 8.63261 10.4473 8.75979 10.3536 8.85355C10.2598 8.94732 10.1326 9 10 9H2C1.86739 9 1.74021 8.94732 1.64645 8.85355C1.55268 8.75979 1.5 8.63261 1.5 8.5V4.5C1.5 4.36739 1.55268 4.24021 1.64645 4.14645C1.74021 4.05268 1.86739 4 2 4H3.5C3.63261 4 3.75979 3.94732 3.85355 3.85355C3.94732 3.75979 4 3.63261 4 3.5C4 3.36739 3.94732 3.24021 3.85355 3.14645C3.75979 3.05268 3.63261 3 3.5 3H2C1.60218 3 1.22064 3.15804 0.93934 3.43934C0.658035 3.72064 0.5 4.10218 0.5 4.5V8.5C0.5 8.89782 0.658035 9.27936 0.93934 9.56066C1.22064 9.84196 1.60218 10 2 10H10C10.3978 10 10.7794 9.84196 11.0607 9.56066C11.342 9.27936 11.5 8.89782 11.5 8.5V4.5C11.5 4.10218 11.342 3.72064 11.0607 3.43934C10.7794 3.15804 10.3978 3 10 3ZM2.5 6.5C2.5 6.59889 2.52932 6.69556 2.58427 6.77779C2.63921 6.86001 2.7173 6.9241 2.80866 6.96194C2.90002 6.99978 3.00055 7.00969 3.09755 6.99039C3.19454 6.9711 3.28363 6.92348 3.35355 6.85355C3.42348 6.78363 3.4711 6.69454 3.49039 6.59755C3.50969 6.50055 3.49978 6.40002 3.46194 6.30866C3.4241 6.2173 3.36001 6.13921 3.27779 6.08427C3.19556 6.02932 3.09889 6 3 6C2.86739 6 2.74021 6.05268 2.64645 6.14645C2.55268 6.24021 2.5 6.36739 2.5 6.5Z" fill="#E33F3F"/>
</svg>
