<svg width="30" height="30" viewBox="0 0 30 30" fill="none" xmlns="http://www.w3.org/2000/svg">
<circle cx="15" cy="15" r="15" fill="#29BB89"/>
<path d="M18.3485 13.7794H14.5697V16.4279H18.3485V13.7794Z" fill="white"/>
<path d="M11.74 11.7989C11.7845 11.7989 11.8284 11.8009 11.8726 11.8022C11.914 11.7956 11.9527 11.7865 11.9942 11.7815V9.07248C11.8993 9.0762 11.8056 9.08218 11.7124 9.08941H11.6654V9.09312C10.7231 9.17034 9.86187 9.41457 9.08162 9.82582C8.12265 10.3331 7.36933 11.0399 6.82168 11.9461C6.27403 12.8523 6.00014 13.8785 6 15.0249C6 16.1714 6.27389 17.1979 6.82168 18.1045C7.11936 18.5978 7.49083 19.0428 7.92327 19.4244C7.29788 18.5996 6.96035 17.5936 6.96215 16.5599C6.96215 13.9305 9.1013 11.7989 11.74 11.7989Z" fill="white"/>
<path d="M11.5473 20.9465V21H11.9942V18.2685C11.5831 18.2194 11.1856 18.0911 10.8236 17.8909C10.3415 17.6235 9.94754 17.2225 9.68971 16.7364C9.42093 16.2397 9.28668 15.6692 9.28695 15.0249C9.28723 14.3806 9.42148 13.8101 9.68971 13.3134C9.94751 12.8272 10.3414 12.4261 10.8236 12.1587C11.1494 11.9791 11.5046 11.8584 11.8726 11.802C11.8285 11.8007 11.7845 11.7987 11.74 11.7987C9.10132 11.7987 6.96216 13.9303 6.96216 16.5597C6.9605 17.5932 7.29802 18.5989 7.92328 19.4236C8.27605 19.7355 8.66492 20.0044 9.08163 20.2246C9.82832 20.6201 10.6502 20.8608 11.5473 20.9465Z" fill="url(#paint0_linear_0_321)"/>
<path d="M14.6045 18.3223V20.9707H18.4788C18.4788 20.6228 18.41 20.2784 18.2764 19.9571C18.1428 19.6357 17.947 19.3437 17.7001 19.0978C17.4533 18.8519 17.1602 18.6568 16.8377 18.5237C16.5152 18.3907 16.1695 18.3222 15.8204 18.3223H14.6045Z" fill="white"/>
<path d="M14.6045 9.07187V11.7202H15.8205C16.5253 11.7202 17.2013 11.4412 17.6998 10.9445C18.1982 10.4479 18.4782 9.77426 18.4782 9.07187H14.6039H14.6045Z" fill="white"/>
<path d="M23.3434 11.3422H22.0662V12.585H20.9022V11.3422H19.6177V10.2426H20.9022V9H22.0662V10.2426H23.3434V11.3422Z" fill="white"/>
<defs>
<linearGradient id="paint0_linear_0_321" x1="6.17777" y1="19.2722" x2="19.1464" y2="11.8503" gradientUnits="userSpaceOnUse">
<stop stop-color="white"/>
<stop offset="0.6" stop-color="#D3D3D3"/>
<stop offset="1" stop-color="#B3B3B3"/>
</linearGradient>
</defs>
</svg>
