<svg width="50" height="50" viewBox="0 0 50 50" fill="none" xmlns="http://www.w3.org/2000/svg">
<circle cx="25" cy="25" r="25" fill="#29BB89"/>
<path d="M34.7118 22.2911L30.711 18.2939C30.6178 18.2007 30.5071 18.1268 30.3852 18.0764C30.2634 18.026 30.1328 18 30.0009 18C29.7346 18 29.4791 18.1057 29.2908 18.2939C29.1024 18.4821 28.9966 18.7373 28.9966 19.0034C28.9966 19.2695 29.1024 19.5247 29.2908 19.7129L31.5912 22.0013H19.9991C19.7338 22.0013 19.4794 22.1065 19.2919 22.294C19.1043 22.4814 18.9989 22.7355 18.9989 23.0006C18.9989 23.2656 19.1043 23.5198 19.2919 23.7072C19.4794 23.8946 19.7338 23.9999 19.9991 23.9999H34.0016C34.1991 23.9989 34.3918 23.9395 34.5556 23.8293C34.7193 23.719 34.8468 23.5628 34.9218 23.3803C34.9984 23.1983 35.0193 22.9977 34.9819 22.8039C34.9446 22.61 34.8505 22.4316 34.7118 22.2911ZM30.0009 25.9984H15.9984C15.8009 25.9994 15.6082 26.0588 15.4444 26.169C15.2807 26.2793 15.1532 26.4355 15.0782 26.618C15.0016 26.8 14.9807 27.0006 15.0181 27.1944C15.0554 27.3883 15.1495 27.5667 15.2882 27.7072L19.289 31.7044C19.3819 31.7981 19.4926 31.8724 19.6144 31.9231C19.7363 31.9739 19.8671 32 19.9991 32C20.1311 32 20.2619 31.9739 20.3837 31.9231C20.5056 31.8724 20.6162 31.7981 20.7092 31.7044C20.803 31.6115 20.8774 31.501 20.9282 31.3792C20.9789 31.2574 21.0051 31.1268 21.0051 30.9949C21.0051 30.863 20.9789 30.7324 20.9282 30.6106C20.8774 30.4888 20.803 30.3783 20.7092 30.2854L18.4088 27.997H30.0009C30.2662 27.997 30.5206 27.8917 30.7081 27.7043C30.8957 27.5169 31.0011 27.2628 31.0011 26.9977C31.0011 26.7327 30.8957 26.4785 30.7081 26.2911C30.5206 26.1037 30.2662 25.9984 30.0009 25.9984Z" fill="white"/>
</svg>
