<svg width="50" height="50" viewBox="0 0 50 50" fill="none" xmlns="http://www.w3.org/2000/svg">
<circle cx="25" cy="25" r="25" fill="#29BB89"/>
<path d="M25 23C24.4067 23 23.8266 23.1759 23.3333 23.5056C22.8399 23.8352 22.4554 24.3038 22.2284 24.8519C22.0013 25.4001 21.9419 26.0033 22.0576 26.5853C22.1734 27.1672 22.4591 27.7018 22.8787 28.1213C23.2982 28.5409 23.8328 28.8266 24.4147 28.9424C24.9967 29.0581 25.5999 28.9987 26.1481 28.7716C26.6962 28.5446 27.1648 28.1601 27.4944 27.6667C27.8241 27.1734 28 26.5933 28 26C28 25.2044 27.6839 24.4413 27.1213 23.8787C26.5587 23.3161 25.7956 23 25 23ZM25 27C24.8022 27 24.6089 26.9414 24.4444 26.8315C24.28 26.7216 24.1518 26.5654 24.0761 26.3827C24.0004 26.2 23.9806 25.9989 24.0192 25.8049C24.0578 25.6109 24.153 25.4327 24.2929 25.2929C24.4327 25.153 24.6109 25.0578 24.8049 25.0192C24.9989 24.9806 25.2 25.0004 25.3827 25.0761C25.5654 25.1518 25.7216 25.28 25.8315 25.4444C25.9414 25.6089 26 25.8022 26 26C26 26.2652 25.8946 26.5196 25.7071 26.7071C25.5196 26.8946 25.2652 27 25 27ZM24.29 20.71C24.3851 20.801 24.4972 20.8724 24.62 20.92C24.7397 20.9729 24.8691 21.0002 25 21.0002C25.1309 21.0002 25.2603 20.9729 25.38 20.92C25.5028 20.8724 25.6149 20.801 25.71 20.71L28 18.46C28.1936 18.2664 28.3024 18.0038 28.3024 17.73C28.3024 17.4562 28.1936 17.1936 28 17C27.8064 16.8064 27.5438 16.6976 27.27 16.6976C26.9962 16.6976 26.7336 16.8064 26.54 17L26 17.59V14C26 13.7348 25.8946 13.4804 25.7071 13.2929C25.5196 13.1054 25.2652 13 25 13C24.7348 13 24.4804 13.1054 24.2929 13.2929C24.1054 13.4804 24 13.7348 24 14V17.59L23.46 17C23.2664 16.8064 23.0038 16.6976 22.73 16.6976C22.4562 16.6976 22.1936 16.8064 22 17C21.8064 17.1936 21.6976 17.4562 21.6976 17.73C21.6976 18.0038 21.8064 18.2664 22 18.46L24.29 20.71ZM32 26C32 25.8022 31.9414 25.6089 31.8315 25.4444C31.7216 25.28 31.5654 25.1518 31.3827 25.0761C31.2 25.0004 30.9989 24.9806 30.8049 25.0192C30.6109 25.0578 30.4327 25.153 30.2929 25.2929C30.153 25.4327 30.0578 25.6109 30.0192 25.8049C29.9806 25.9989 30.0004 26.2 30.0761 26.3827C30.1518 26.5654 30.28 26.7216 30.4444 26.8315C30.6089 26.9414 30.8022 27 31 27C31.2652 27 31.5196 26.8946 31.7071 26.7071C31.8946 26.5196 32 26.2652 32 26ZM33 19H30C29.7348 19 29.4804 19.1054 29.2929 19.2929C29.1054 19.4804 29 19.7348 29 20C29 20.2652 29.1054 20.5196 29.2929 20.7071C29.4804 20.8946 29.7348 21 30 21H33C33.2652 21 33.5196 21.1054 33.7071 21.2929C33.8946 21.4804 34 21.7348 34 22V30C34 30.2652 33.8946 30.5196 33.7071 30.7071C33.5196 30.8946 33.2652 31 33 31H17C16.7348 31 16.4804 30.8946 16.2929 30.7071C16.1054 30.5196 16 30.2652 16 30V22C16 21.7348 16.1054 21.4804 16.2929 21.2929C16.4804 21.1054 16.7348 21 17 21H20C20.2652 21 20.5196 20.8946 20.7071 20.7071C20.8946 20.5196 21 20.2652 21 20C21 19.7348 20.8946 19.4804 20.7071 19.2929C20.5196 19.1054 20.2652 19 20 19H17C16.2044 19 15.4413 19.3161 14.8787 19.8787C14.3161 20.4413 14 21.2044 14 22V30C14 30.7956 14.3161 31.5587 14.8787 32.1213C15.4413 32.6839 16.2044 33 17 33H33C33.7956 33 34.5587 32.6839 35.1213 32.1213C35.6839 31.5587 36 30.7956 36 30V22C36 21.2044 35.6839 20.4413 35.1213 19.8787C34.5587 19.3161 33.7956 19 33 19ZM18 26C18 26.1978 18.0586 26.3911 18.1685 26.5556C18.2784 26.72 18.4346 26.8482 18.6173 26.9239C18.8 26.9996 19.0011 27.0194 19.1951 26.9808C19.3891 26.9422 19.5673 26.847 19.7071 26.7071C19.847 26.5673 19.9422 26.3891 19.9808 26.1951C20.0194 26.0011 19.9996 25.8 19.9239 25.6173C19.8482 25.4346 19.72 25.2784 19.5556 25.1685C19.3911 25.0586 19.1978 25 19 25C18.7348 25 18.4804 25.1054 18.2929 25.2929C18.1054 25.4804 18 25.7348 18 26Z" fill="white"/>
</svg>
