<svg width="325" height="219" viewBox="0 0 325 219" fill="none" xmlns="http://www.w3.org/2000/svg">
<g opacity="0.1">
<path d="M231.133 84.2147H160.595V133.655H231.133V84.2147Z" fill="white"/>
<path d="M107.774 47.2456C108.606 47.2456 109.426 47.2841 110.25 47.3072C111.023 47.1839 111.746 47.0143 112.52 46.9218V-3.64725C110.748 -3.57788 109 -3.46612 107.26 -3.33124H106.382V-3.26187C88.7933 -1.82056 72.7165 2.73844 58.1519 10.4151C40.251 19.8851 26.1892 33.0778 15.9664 49.9933C5.74357 66.9087 0.630874 86.0658 0.628296 107.464C0.628296 128.866 5.74099 148.028 15.9664 164.951C21.523 174.158 28.4571 182.466 36.5293 189.588C24.8554 174.192 18.5548 155.414 18.5885 136.117C18.5885 87.0356 58.5193 47.2456 107.774 47.2456Z" fill="white"/>
<path d="M104.178 218.002V219H112.52V168.011C104.847 167.095 97.4253 164.701 90.669 160.962C81.6686 155.972 74.3156 148.486 69.5027 139.412C64.4854 130.14 61.9794 119.491 61.9845 107.464C61.9897 95.4381 64.4957 84.7889 69.5027 75.5167C74.315 66.4414 81.668 58.9536 90.669 53.9626C96.751 50.6102 103.38 48.3557 110.25 47.3033C109.426 47.2802 108.606 47.2416 107.774 47.2416C58.5193 47.2416 18.5885 87.0318 18.5885 136.113C18.5574 155.406 24.8578 174.18 36.5293 189.573C43.1144 195.396 50.3733 200.416 58.1519 204.525C72.09 211.909 87.432 216.401 104.178 218.002Z" fill="url(#paint0_linear_0_186)"/>
<path d="M161.245 169.017V218.453H233.565C233.565 211.96 232.282 205.53 229.788 199.532C227.294 193.533 223.639 188.083 219.031 183.492C214.422 178.901 208.952 175.26 202.932 172.776C196.911 170.293 190.459 169.015 183.943 169.017H161.245Z" fill="white"/>
<path d="M161.245 -3.65881V45.7773H183.943C197.1 45.7773 209.719 40.5688 219.023 31.2978C228.327 22.0267 233.554 9.45245 233.554 -3.65881H161.233H161.245Z" fill="white"/>
<path d="M324.372 38.7209H300.529V61.9206H278.802V38.7209H254.824V18.1958H278.802V-5H300.529V18.1958H324.372V38.7209Z" fill="white"/>
</g>
<defs>
<linearGradient id="paint0_linear_0_186" x1="3.94654" y1="186.748" x2="246.027" y2="48.2055" gradientUnits="userSpaceOnUse">
<stop stop-color="white"/>
<stop offset="0.6" stop-color="#D3D3D3"/>
<stop offset="1" stop-color="#B3B3B3"/>
</linearGradient>
</defs>
</svg>
