<svg width="163" height="38" viewBox="0 0 163 38" fill="none" xmlns="http://www.w3.org/2000/svg">
<path d="M38.4668 14.6029H26.7857V22.819H38.4668V14.6029Z" fill="white"/>
<path d="M17.7439 8.45907C17.8802 8.45907 18.0165 8.45907 18.1528 8.45907C18.2891 8.45907 18.4017 8.41166 18.5282 8.39388V0C18.2358 0.011853 17.9355 0.0296324 17.6589 0.0533383H17.5128V0.0671668C14.7229 0.267435 12.0041 1.0401 9.52583 2.33701C6.63448 3.84254 4.21665 6.11952 2.54049 8.91541C0.846828 11.7259 0 14.9097 0 18.4669C0 22.0241 0.846828 25.208 2.54049 28.0184C3.46019 29.5481 4.608 30.9284 5.94426 32.1117C4.29292 29.9186 3.28551 27.3087 3.03513 24.5748C2.78475 21.841 3.3013 19.0915 4.52681 16.635C5.75231 14.1784 7.63825 12.1121 9.97293 10.6679C12.3076 9.22368 14.9986 8.45879 17.7439 8.45907Z" fill="white"/>
<path d="M17.1473 36.8371V37.003H18.5302V28.5282C17.2598 28.3762 16.0312 27.9783 14.913 27.3567C13.4216 26.5281 12.2033 25.2838 11.4065 23.7751C10.5768 22.2369 10.162 20.4675 10.162 18.467C10.162 16.4665 10.5768 14.6964 11.4065 13.1568C12.204 11.6499 13.4213 10.4065 14.911 9.57725C15.9181 9.02013 17.0155 8.64497 18.1528 8.46899C18.0165 8.46899 17.8802 8.46899 17.7439 8.46899C15.0003 8.47009 12.3113 9.2354 9.97827 10.6791C7.64526 12.1228 5.76052 14.1879 4.53535 16.6427C3.31019 19.0975 2.79305 21.8451 3.0419 24.5774C3.29076 27.3097 4.29578 29.9186 5.94428 32.1117C7.03495 33.0797 8.23732 33.914 9.52585 34.5969C11.8936 35.8393 14.4839 36.6006 17.1473 36.8371Z" fill="url(#paint0_linear_0_164)"/>
<path d="M26.5981 28.6959V36.912H38.5716C38.5716 34.733 37.7059 32.6432 36.1651 31.1024C34.6243 29.5615 32.5345 28.6959 30.3555 28.6959H26.5981Z" fill="white"/>
<path d="M26.5981 0V8.21608H30.3515C31.4308 8.2166 32.4996 8.00447 33.4969 7.5918C34.4942 7.17914 35.4004 6.57403 36.1637 5.81104C36.9271 5.04806 37.5326 4.14215 37.9458 3.14507C38.3589 2.14799 38.5716 1.07928 38.5716 0H26.5981Z" fill="white"/>
<path d="M63.5596 13.874V28.6902H58.7887L49.743 17.7676V28.6882H44.0634V8.19638H48.8342L57.882 19.1149V8.19638C59.3876 8.1969 60.8314 8.79524 61.8961 9.85988C62.9607 10.9245 63.559 12.3683 63.5596 13.874Z" fill="white"/>
<path d="M72.0206 12.7914H65.7267V8.19638H84.081V12.7914H77.8167V28.6882H72.0206V12.7914Z" fill="white"/>
<path d="M95.205 23.2417H92.0442V28.6882C90.5068 28.6877 89.0326 28.0766 87.9456 26.9893C86.8587 25.902 86.2481 24.4275 86.2481 22.8901V8.19638H95.6139C97.4669 8.19638 99.077 8.50324 100.444 9.11696C101.75 9.66003 102.859 10.5889 103.622 11.7793C104.386 12.9697 104.768 14.365 104.717 15.7783C104.749 17.1438 104.389 18.4899 103.678 19.6562C102.958 20.7849 101.93 21.6837 100.715 22.2461L105.136 28.6882H98.9229L95.205 23.2417ZM97.9549 13.5519C97.3504 13.0251 96.4529 12.7617 95.2623 12.7617H92.0422V18.7673H95.2623C96.4476 18.7673 97.3451 18.5085 97.9549 17.9909C98.5647 17.4733 98.8676 16.7371 98.8636 15.7823C98.8636 14.8235 98.5607 14.0801 97.9549 13.5519Z" fill="white"/>
<path d="M121.637 24.7056H112.973L111.363 28.6882H105.45L114.496 8.19638H120.203L129.278 28.6882H123.247L121.637 24.7056ZM119.94 20.4326L117.305 13.874L114.671 20.4326H119.94Z" fill="white"/>
<path d="M130.918 8.19638C132.455 8.19638 133.929 8.80704 135.016 9.89402C136.103 10.981 136.714 12.4553 136.714 13.9925V24.1011H146.491V28.6981H130.918V8.19638Z" fill="white"/>
<path d="M163 20.5788H158.061V25.4089H153.545V20.5788H148.569V16.3038H153.545V11.4738H158.053V16.3038H162.992L163 20.5788Z" fill="white"/>
<defs>
<linearGradient id="paint0_linear_0_164" x1="0.549203" y1="31.6415" x2="40.7071" y2="8.74161" gradientUnits="userSpaceOnUse">
<stop stop-color="white"/>
<stop offset="0.6" stop-color="#D3D3D3"/>
<stop offset="1" stop-color="#B3B3B3"/>
</linearGradient>
</defs>
</svg>
